<svg xmlns="http://www.w3.org/2000/svg" viewBox="0 0 119.25 158.27"><defs><style>.cls-1{fill:#312e43;}.cls-2{fill:#f8c2a6;}.cls-3{fill:#eb956c;}.cls-4{fill:none;}</style></defs><g id="图层_2" data-name="图层 2"><g id="图层_7" data-name="图层 7"><path class="cls-1" d="M40.57,47.05c-1.09,4.07-2.93,8.65-7,9.83a13,13,0,0,1-5.05.09c-2.63-.3-5.37-.64-7.54-2.14-4.36-3-4.67-9.39-3.45-14.55C20.21,29,27.74,19.64,35.06,10.68a7.18,7.18,0,0,1,2.06-1.94C50.32,1.69,41.59,43.26,40.57,47.05Z"/><path class="cls-1" d="M99.81,114.63c2.86-1.9,6.73-1.54,9.84-.12a16.5,16.5,0,0,1,7.08,23.78c-2.08,3.32-5.26,5.77-8.49,8-3.6,2.47-7.65,4.8-12,4.55a6.85,6.85,0,0,1-5.32-2.61c-4-5.88,3-11,6.79-14.32C103.58,128.74,104.3,121.06,99.81,114.63Z"/><path class="cls-2" d="M95.16,146c-3.41,7.74-9.94,9.5-18.21,9.73-1.14,0-2.29,0-3.41,0a17.12,17.12,0,0,1-1.84.59c-2.74.62-5.85-1.14-8.57-.42a7.67,7.67,0,0,1-4.22,2.27c-2.54.47-5.12-.38-7.58-1.19l-4-1.35a24.63,24.63,0,0,1-3.71-1.51c-2.71-1.5-3.67-5-6.53-5.57-4.56-.89-8.92-.47-12.82-3.23a18.75,18.75,0,0,1-7.08-9.66A34.49,34.49,0,0,1,16,126.28a210.4,210.4,0,0,1,3.24-41.76,151.74,151.74,0,0,1,4.65-20c1.5-4.6,4.13-9.54,3.37-14.54-.66-4.39-4.56-7.78-7.06-11.26-4.35-6.06-4.64-17.5,2.35-22.15,2.68-1.78,6-1.63,9-2.43,3.16-.85,4.37-2.83,6.17-5.42A20.46,20.46,0,0,1,48.57.81C54.13-.85,60.79.24,66.12,2.26a30.05,30.05,0,0,1,6,3,25.38,25.38,0,0,1,4.45,3.56,22.85,22.85,0,0,1,6.34,12.38c.11.61.21,1.23.28,1.84a38.43,38.43,0,0,1,.19,6.72v.32a114.22,114.22,0,0,1-1.55,12.78,113.6,113.6,0,0,0-1.51,12.47,63.62,63.62,0,0,0,4.18,25.69c4.2,10.81,10,21,13.1,32.15A48.17,48.17,0,0,1,95.16,146Z"/><path class="cls-2" d="M81,102.61a39.8,39.8,0,0,0-9.77-3.92c-3.45-.7-7.26-.4-10.15,1.6a14.81,14.81,0,0,0-4.83,6.4c-3.88,8.74-3.37,18.91-.69,28.09a2.63,2.63,0,0,1,0,2.23,3.25,3.25,0,0,1-1.71,1c-3.26,1.25-4.68,5.49-3.52,8.79s4.31,5.57,7.67,6.55,6.91.84,10.4.6"/><path class="cls-2" d="M27.36,111.66q-.2,6.87-.42,13.77c-.21,6.26-.39,12.54-1.2,18.73-.75,1.17-2.38,1.43-3.86,1.53l-1.57.08a31.36,31.36,0,0,1-6.13-.19l-.25,0a29.51,29.51,0,0,1-6.73-1.75,7,7,0,0,1-.69-.26A29.8,29.8,0,0,1,3,141.82l-.62-.36a0,0,0,0,0,0,0A5.91,5.91,0,0,1,.65,140a4.58,4.58,0,0,1-.42-3.87c1.1-4.06,5.36-6.61,9.55-7.06a1.66,1.66,0,0,0,1.17-.41,1.55,1.55,0,0,0,.32-.84,38.86,38.86,0,0,0,1-8.17c-.08-2.88-.09-5.78-.06-8.67.06-5.81.35-11.61.83-17.39.66-7.94,1.76-16,4.63-23.49,1-2.55,5.3-9.36,8-10.78,2.1-1.1,1.83.18,2,1.72.27,2.94-2.19,7.1-2.05,10.06.45,10.68,1,21.41,1.45,32.13C27.1,106,27.24,108.84,27.36,111.66Z"/><path class="cls-3" d="M5.64,135.5a5.94,5.94,0,0,0-1.93,2.78A16.19,16.19,0,0,0,3,141.86a3.24,3.24,0,0,1-.63-.41,4.9,4.9,0,0,1-.13-1.2c0-1.76.19-6.61,3.07-6.49C6.69,133.84,6.32,134.84,5.64,135.5Z"/><path class="cls-3" d="M7.2,143.79a15.48,15.48,0,0,1,.7-3.31,4.69,4.69,0,0,1,.8-1.67c.43-.52,1.31-1.12,1.1-1.88-.25-1.13-1.36-.85-2-.3-1.54,1.37-1.34,4.7-1.36,6.54,0,.13,0,.23,0,.36Z"/><path class="cls-3" d="M23.38,116c-.09,4.16-.16,8.32-.24,12.48-.12,5.66-.23,11.35-.76,17a1.67,1.67,0,0,1-.16.24l-1.33.08c-2.68.2-5.3-.31-8-.3a.62.62,0,0,1-.49-.15.64.64,0,0,1-.1-.33c-.21-2,.2-4.3,1.78-5.58S17.34,138,18,136.07s.15-4.87,0-7c-.22-3.6-.33-7.24-.37-10.84a24.66,24.66,0,0,1,.55-6.4c.54-2.16,3.43-7.34,4.94-3.42C23.16,110.92,23.26,113.46,23.38,116Z"/><path class="cls-3" d="M29.74,87.43a4.82,4.82,0,0,1,5.33,1.73c.94,1.45.78,3.13.63,4.73a128.52,128.52,0,0,0-.26,21.31c.2,2.71.41,5.62-1.56,7.9-1,1.18-3.08,2.13-4.72,1.45a3.55,3.55,0,0,1-1.77-1.92C24.15,116,24.2,108.87,25,102,25.3,98.84,25.68,89,29.74,87.43Z"/><path class="cls-2" d="M44.46,147.45a9.2,9.2,0,0,1,0,1.88v0a5.72,5.72,0,0,1-.58,2.33,5.8,5.8,0,0,1-2.64,2.59,10.47,10.47,0,0,1-4.06,1.19c-.28.05-.57.06-.85.09A20,20,0,0,1,28,154.31c-.4-.14-.81-.32-1.2-.5A18.77,18.77,0,0,1,23.48,152c-.35-.25-.67-.49-1-.76a1.15,1.15,0,0,1-.19-.14,3.36,3.36,0,0,1-.9-1,3.06,3.06,0,0,1-.24-1.14,8.58,8.58,0,0,1,2.11-6.14,9.35,9.35,0,0,1,2.43-1.89c.86-.42,2.15-.41,2.9-.9,1.42-.89,1.34-3.22,1.32-4.72-.08-7.48-.06-15-.11-22.43a70.11,70.11,0,0,0-.55-10.27c-.49-3.4-.78-7,.51-10.3a19,19,0,0,1,3.61-5.44c1.27-1.45,2.87-2.92,4.82-2.9s3.76,1.85,4.32,3.83a14.43,14.43,0,0,1,0,6.17,41.89,41.89,0,0,0-.85,7.06A402.58,402.58,0,0,0,44.46,147.45Z"/><path class="cls-3" d="M26.54,145.91a7.78,7.78,0,0,0-3.06,6c-.35-.25-.67-.49-1-.76a7.25,7.25,0,0,1,.07-2.23C23,147.13,24.73,145.49,26.54,145.91Z"/><path class="cls-4" d="M31.7,154c-.06-.12-.11-.22-.16-.34"/><path class="cls-3" d="M44.51,149.33v0a5.72,5.72,0,0,1-.58,2.33,5.8,5.8,0,0,1-2.64,2.59,10.47,10.47,0,0,1-4.06,1.19c-.64,0-1.27.06-1.93.05a5.25,5.25,0,0,1,.83-5.53c.72-.85,1.68-1.44,2.38-2.33,1.18-1.54,1.32-3.66,1.27-5.61-.16-8.14-1.81-16.13-2.53-24.21-.34-3.79-2.76-16.79,3.9-15.69a2.31,2.31,0,0,1,.47.11v0a402.86,402.86,0,0,0,2.83,46.45C44.48,148.93,44.48,149.12,44.51,149.33Z"/><path class="cls-3" d="M29.91,148.11a5.49,5.49,0,0,0-1.63,3.18c-.19,1-.21,2-.31,3-.4-.14-.81-.32-1.2-.5-.1-.63-.16-1.2-.16-1.27a7.87,7.87,0,0,1,1.16-4.18,2.82,2.82,0,0,1,.95-1,1.67,1.67,0,0,1,1.31-.12l.16.1C30.38,147.61,30.12,147.91,29.91,148.11Z"/><path class="cls-3" d="M97.62,113.2c-3.05-11.15-8.9-21.34-13.1-32.15a63.62,63.62,0,0,1-4.18-25.69,113.58,113.58,0,0,1,1.52-12.48c1.09-.55,1.39-10.3,1.49-11.67,0-.26,0-.52,0-.79a43.83,43.83,0,0,0-.18-7.35c-.07-.61-.17-1.23-.28-1.84A22.85,22.85,0,0,0,76.59,8.85a25.38,25.38,0,0,0-4.45-3.56,30.05,30.05,0,0,0-6-3A6,6,0,0,1,64.47,6a6.13,6.13,0,0,1-6,1.65c-1.1-.29-2.06,1-2.08,2.12a20.8,20.8,0,0,0,.7,3.35c1.1,7.18-9.24,10.31-14.66,10.45-4.15.1-6.67-2.73-10.47-3.1-5.83-.58-9.27,6.1-3.74,9.56,1.41.88,3.14,1.32,4.27,2.55,2.78,3-.06,8.2,1.59,12,1.55,3.53,6.12,4.31,9.95,4.6l7.93.59a5.69,5.69,0,0,1,2.55.59C59,53,50.37,59.84,49.18,62.44c-2.58,5.62-1.59,12.1-.06,17.86,1,3.48,2.35,7,5,9.35,3.58,3.18,8.67,3.75,13.31,4.86,4.13,1,8.58,2.92,10.43,6.57a26.71,26.71,0,0,0-9-2.59c-5.13-.51-9.12,1-11.7,5.53s-3.35,9.53-3.46,14.49a21,21,0,0,0,.43,5.49,17.58,17.58,0,0,0,6.19,9.14A51.84,51.84,0,0,0,69.9,139a26.14,26.14,0,0,0-12.54-.83,10.6,10.6,0,0,0-4.48,1.68,10.25,10.25,0,0,0-3.25,4.68A12,12,0,0,0,48.7,150c.48,4.47,4.59,7,8.67,7.62,8.31,1.21,15.81-1.15,23.87-2.18,6.16-.79,11.34-3.54,13.92-9.44A48.17,48.17,0,0,0,97.62,113.2Z"/><path class="cls-1" d="M25,18a20.75,20.75,0,0,1,5,.48c1.33.29,2.93,1.15,2.73,2.49a2.82,2.82,0,0,1-1,1.49,9,9,0,0,1-4.13,2.38c-1.86.38-4.29-.42-5.07-2.3C21.49,20.15,22.15,18,25,18Z"/><path class="cls-1" d="M69.42,55.6C70,60,71.25,65.09,75.31,66.9a13.83,13.83,0,0,0,5.28.83c2.79.06,5.71.1,8.2-1.16,5-2.53,6.25-9.15,5.71-14.73-1.16-12.17-7.69-23.09-14.06-33.53A7.68,7.68,0,0,0,78.57,16C65.77,6.69,68.9,51.49,69.42,55.6Z"/></g></g></svg>