<?xml version="1.0" encoding="utf-8"?>
<!-- Generator: Adobe Illustrator 21.0.0, SVG Export Plug-In . SVG Version: 6.00 Build 0)  -->
<svg version="1.1" id="图层_1" xmlns="http://www.w3.org/2000/svg" xmlns:xlink="http://www.w3.org/1999/xlink" x="0px" y="0px"
	 viewBox="0 0 440 440" style="enable-background:new 0 0 440 440;" xml:space="preserve">
<style type="text/css">
	.st0{fill:#FFE887;}
	.st1{fill:#5E3726;}
	.st2{fill:#F8B62D;}
	.st3{fill:#E95878;}
	.st4{fill:#FFFFFF;}
</style>
<g>
	<g>
		<g>
			<path class="st0" d="M192.8,278.6c-1.1,0-2.1-0.7-2.5-1.7l-73-205.6c-0.2-0.7-0.2-1.4,0.1-2c0.3-0.6,0.9-1.1,1.5-1.3l9.3-3.1
				c0.3-0.1,0.5-0.1,0.8-0.1c0.4,0,0.8,0.1,1.2,0.3c0.6,0.3,1.1,0.9,1.3,1.6l63.8,208.7c0.4,1.4-0.3,2.8-1.7,3.2
				C193.3,278.5,193.1,278.6,192.8,278.6z"/>
			<g>
				<path class="st1" d="M129,67.3l63.8,208.7l-73-205.6L129,67.3 M129,62c-0.6,0-1.1,0.1-1.6,0.3l-9.3,3.1
					c-1.3,0.4-2.4,1.4-3.1,2.7c-0.6,1.3-0.7,2.7-0.2,4l73,205.6c0.8,2.1,2.8,3.5,4.9,3.5c0.5,0,1.1-0.1,1.6-0.3
					c2.7-0.9,4.2-3.8,3.4-6.5L134,65.7c-0.4-1.3-1.3-2.5-2.6-3.1C130.7,62.2,129.9,62,129,62L129,62z"/>
			</g>
		</g>
		<g>
			<g>
				<path class="st2" d="M195.7,226.7l-34.6,11.4c-8.3,2.7-17.2-1.8-20-10.1l0,0c-2.7-8.3,1.8-17.2,10.1-20l34.6-11.4
					c8.3-2.7,17.2,1.8,20,10.1l0,0C208.5,215,204,224,195.7,226.7z"/>
				<path class="st1" d="M156.2,241.5c-2.8,0-5.7-0.7-8.3-2c-4.4-2.2-7.7-6-9.2-10.7c-1.5-4.7-1.2-9.7,1-14.1s6-7.7,10.7-9.2
					l34.6-11.4c9.6-3.2,20.1,2.1,23.3,11.7c3.2,9.6-2.1,20.1-11.7,23.3l-34.6,11.4C160.1,241.2,158.1,241.5,156.2,241.5z
					 M190.7,198.5c-1.4,0-2.8,0.2-4.1,0.7L152,210.6c-3.3,1.1-6.1,3.4-7.6,6.6c-1.6,3.1-1.9,6.7-0.7,10.1c1.1,3.3,3.4,6.1,6.6,7.6
					c3.1,1.6,6.7,1.9,10.1,0.7l34.6-11.4c6.9-2.3,10.7-9.8,8.4-16.7C201.4,202,196.3,198.5,190.7,198.5z M195.7,226.7L195.7,226.7
					L195.7,226.7z"/>
			</g>
			<g>
				<path class="st2" d="M185.8,196.7l-34.6,11.4c-8.3,2.7-17.2-1.8-20-10.1l0,0c-2.7-8.3,1.8-17.2,10.1-20l34.6-11.4
					c8.3-2.7,17.2,1.8,20,10.1l0,0C198.6,185,194.1,193.9,185.8,196.7z"/>
				<path class="st1" d="M146.2,211.5c-2.8,0-5.7-0.7-8.3-2c-4.4-2.2-7.7-6-9.2-10.7c-1.5-4.7-1.2-9.7,1-14.1
					c2.2-4.4,6-7.7,10.7-9.2l34.6-11.4c4.7-1.5,9.7-1.2,14.1,1c4.4,2.2,7.7,6,9.2,10.7c3.2,9.6-2.1,20.1-11.7,23.3L152,210.6
					C150.1,211.2,148.2,211.5,146.2,211.5z M180.8,168.5c-1.4,0-2.8,0.2-4.1,0.7l-34.6,11.4c-3.3,1.1-6.1,3.4-7.6,6.6
					c-1.6,3.1-1.9,6.7-0.7,10.1c1.1,3.3,3.4,6.1,6.6,7.6c3.1,1.6,6.7,1.9,10.1,0.7l34.6-11.4c6.9-2.3,10.7-9.8,8.4-16.7
					c-1.1-3.3-3.4-6.1-6.6-7.6C184.9,168.9,182.9,168.5,180.8,168.5z M185.8,196.7L185.8,196.7L185.8,196.7z"/>
			</g>
			<g>
				<path class="st2" d="M175.9,166.7l-34.6,11.4c-8.3,2.7-17.2-1.8-20-10.1l0,0c-2.7-8.3,1.8-17.2,10.1-20l34.6-11.4
					c8.3-2.7,17.2,1.8,20,10.1l0,0C188.7,155,184.2,163.9,175.9,166.7z"/>
				<path class="st1" d="M136.4,181.5c-7.7,0-14.9-4.9-17.5-12.6c-1.5-4.7-1.2-9.7,1-14.1c2.2-4.4,6-7.7,10.7-9.2l34.6-11.4
					c9.6-3.2,20.1,2.1,23.3,11.7c3.2,9.6-2.1,20.1-11.7,23.3l-34.6,11.4C140.2,181.2,138.3,181.5,136.4,181.5z M170.9,138.5
					c-1.4,0-2.8,0.2-4.1,0.7l-34.6,11.4c-3.3,1.1-6.1,3.4-7.6,6.6s-1.9,6.7-0.7,10.1c2.3,6.9,9.8,10.7,16.7,8.4l34.6-11.4
					c6.9-2.3,10.7-9.8,8.4-16.7C181.6,142,176.5,138.5,170.9,138.5z M175.9,166.7L175.9,166.7L175.9,166.7z"/>
			</g>
			<g>
				<path class="st2" d="M166,136.6l-34.6,11.4c-8.3,2.7-17.2-1.8-20-10.1l0,0c-2.7-8.3,1.8-17.2,10.1-20l34.6-11.4
					c8.3-2.7,17.2,1.8,20,10.1l0,0C178.8,125,174.3,133.9,166,136.6z"/>
				<path class="st1" d="M126.5,151.5c-7.7,0-15-4.9-17.5-12.6c-3.2-9.6,2.1-20.1,11.7-23.3l34.6-11.4c4.7-1.5,9.7-1.2,14.1,1
					s7.7,6,9.2,10.7c1.5,4.7,1.2,9.7-1,14.1c-2.2,4.4-6,7.7-10.7,9.2l-34.6,11.4C130.3,151.2,128.4,151.5,126.5,151.5z M161,108.4
					c-1.4,0-2.8,0.2-4.1,0.7l-34.6,11.4c-6.9,2.3-10.7,9.8-8.4,16.7c2.3,6.9,9.8,10.7,16.7,8.4l34.6-11.4c3.3-1.1,6.1-3.4,7.6-6.6
					c1.6-3.1,1.9-6.7,0.7-10.1c-1.1-3.3-3.4-6.1-6.6-7.7C165.1,108.9,163.1,108.4,161,108.4z M166,136.6L166,136.6L166,136.6z"/>
			</g>
		</g>
	</g>
	<g>
		<g>
			<path class="st0" d="M216.8,238.2c-1.4-0.1-2.5-1.2-2.5-2.6l3.4-218.2c0-0.7,0.3-1.4,0.8-1.9c0.5-0.5,1.1-0.7,1.8-0.7
				c0,0,9.8,0.4,9.8,0.4c0.7,0,1.4,0.3,1.8,0.9c0.5,0.5,0.7,1.2,0.7,1.9l-13.2,217.8c-0.1,1.4-1.2,2.5-2.6,2.5
				C216.9,238.2,216.9,238.2,216.8,238.2z"/>
			<g>
				<path class="st1" d="M220.4,17.4l9.7,0.4l-13.2,217.8L220.4,17.4 M220.4,12.2c-1.3,0-2.6,0.5-3.6,1.4c-1,1-1.6,2.3-1.6,3.7
					l-3.4,218.2c0,2.8,2.2,5.2,5,5.3c0.1,0,0.1,0,0.2,0c2.7,0,5-2.1,5.2-4.9l13.2-217.8c0.1-1.4-0.4-2.8-1.3-3.8
					c-0.9-1-2.3-1.7-3.7-1.7l-9.7-0.4C220.5,12.2,220.4,12.2,220.4,12.2L220.4,12.2z"/>
			</g>
		</g>
		<g>
			<path class="st3" d="M215.9,263.3L215.9,263.3c-18.7-0.7-33.2-16.4-32.5-35.1L188,107c0.7-18.7,16.4-33.2,35.1-32.5h0
				c18.7,0.7,33.2,16.4,32.5,35.1l-4.6,121.2C250.2,249.4,234.5,264,215.9,263.3z"/>
			<path class="st1" d="M217.2,265.9c-0.5,0-0.9,0-1.4,0c-9.7-0.4-18.7-4.5-25.3-11.6c-6.6-7.1-10-16.4-9.7-26.1l4.6-121.2
				c0.4-9.7,4.5-18.7,11.6-25.3c7.1-6.6,16.5-10.1,26.1-9.7c9.7,0.4,18.7,4.5,25.3,11.6c6.6,7.1,10,16.4,9.7,26.1l-4.6,121.2
				c-0.4,9.7-4.5,18.7-11.6,25.3C235.1,262.5,226.4,265.9,217.2,265.9z M221.7,77.1c-7.9,0-15.4,2.9-21.2,8.3
				c-6.1,5.7-9.7,13.4-10,21.7L186,228.3c-0.3,8.3,2.6,16.3,8.3,22.4c5.7,6.1,13.4,9.7,21.7,10c8.4,0.3,16.3-2.6,22.4-8.3
				c6.1-5.7,9.7-13.4,10-21.7l4.6-121.2c0.3-8.3-2.6-16.3-8.3-22.4c-5.7-6.1-13.4-9.7-21.7-10C222.6,77.1,222.2,77.1,221.7,77.1z"/>
		</g>
	</g>
	<g>
		<g>
			<path class="st0" d="M246.1,271.5c-0.3,0-0.5,0-0.8-0.1c-1.3-0.4-2.1-1.9-1.7-3.2L305.9,59c0.2-0.7,0.7-1.2,1.3-1.6
				c0.4-0.2,0.8-0.3,1.2-0.3c0.3,0,0.5,0,0.8,0.1l9.3,3c0.7,0.2,1.2,0.7,1.5,1.3c0.3,0.6,0.4,1.4,0.1,2l-71.5,206.2
				C248.2,270.9,247.2,271.5,246.1,271.5z"/>
			<g>
				<path class="st1" d="M308.4,59.8l9.3,3l-71.5,206.2L308.4,59.8 M308.4,54.6c-0.8,0-1.7,0.2-2.4,0.6c-1.2,0.7-2.2,1.8-2.6,3.1
					l-62.2,209.1c-0.8,2.7,0.7,5.6,3.4,6.5c0.5,0.2,1.1,0.3,1.6,0.3c2.2,0,4.2-1.4,4.9-3.5l71.5-206.2c0.5-1.3,0.4-2.8-0.3-4
					c-0.6-1.3-1.7-2.2-3.1-2.6l-9.3-3C309.4,54.6,308.9,54.6,308.4,54.6L308.4,54.6z"/>
			</g>
		</g>
		<g>
			<g>
				<path class="st0" d="M253.7,272.8l45.9-22.9c9.6-4.8,8.6-18.9-1.7-22.2l-69.8-22.5c-10.2-3.3-19.3,7.5-14.3,17l23.9,45.3
					C240.8,273.5,247.9,275.7,253.7,272.8z"/>
				<path class="st1" d="M248.4,276.7c-5.3,0-10.4-2.8-13-7.8l-23.9-45.3c-2.8-5.4-2.2-11.6,1.7-16.2c3.9-4.6,9.9-6.4,15.7-4.5
					l69.8,22.5c5.8,1.9,9.6,6.8,10.1,12.8c0.5,6-2.6,11.5-8.1,14.2l-45.9,22.9l0,0C252.8,276.2,250.6,276.7,248.4,276.7z
					 M253.7,272.8L253.7,272.8L253.7,272.8z M224.4,207.3c-3.1,0-5.6,1.6-7.1,3.4c-2,2.3-3.3,6.3-1.1,10.4l23.9,45.3
					c2.4,4.5,8,6.3,12.5,4l45.9-22.9c4.2-2.1,5.4-6.1,5.2-9.1c-0.2-3-2.1-6.8-6.5-8.2l-69.8-22.5
					C226.3,207.5,225.3,207.3,224.4,207.3z"/>
			</g>
			<g>
				<path class="st4" d="M265.4,236.5l45.9-22.9c9.6-4.8,8.6-18.9-1.7-22.2L239.8,169c-10.2-3.3-19.3,7.5-14.3,17l23.9,45.3
					C252.5,237.1,259.6,239.4,265.4,236.5z"/>
				<path class="st1" d="M260.1,240.4c-5.3,0-10.4-2.8-13-7.8l-23.9-45.3c-2.8-5.4-2.2-11.6,1.7-16.2c3.9-4.6,9.9-6.4,15.7-4.5
					l69.8,22.5c5.8,1.9,9.6,6.8,10.1,12.8c0.5,6-2.6,11.5-8.1,14.2l-45.9,22.9C264.5,239.9,262.3,240.4,260.1,240.4z M236.1,171
					c-3.1,0-5.6,1.6-7.1,3.4c-2,2.3-3.3,6.3-1.1,10.4l23.9,45.3c2.4,4.5,8,6.3,12.5,4l45.9-22.9c4.2-2.1,5.4-6.1,5.2-9.1
					c-0.2-3-2.1-6.8-6.5-8.2L239,171.5C238,171.2,237,171,236.1,171z"/>
			</g>
			<g>
				<path class="st0" d="M276.9,200.7l45.9-22.9c9.6-4.8,8.6-18.9-1.7-22.2l-69.8-22.5c-10.2-3.3-19.3,7.5-14.3,17l23.9,45.3
					C264,201.4,271.1,203.6,276.9,200.7z"/>
				<path class="st1" d="M271.6,204.6c-5.3,0-10.4-2.8-13-7.8l-23.9-45.3c-2.8-5.4-2.2-11.6,1.7-16.2c3.9-4.6,9.9-6.4,15.7-4.5
					l69.8,22.5c5.8,1.9,9.6,6.8,10.1,12.8c0.5,6-2.6,11.5-8.1,14.2l-45.9,22.9C276,204.1,273.8,204.6,271.6,204.6z M247.6,135.2
					c-3.1,0-5.6,1.6-7.1,3.4c-2,2.3-3.3,6.3-1.1,10.4l23.9,45.3c2.4,4.5,8,6.3,12.5,4l0,0l45.9-22.9c4.2-2.1,5.4-6.1,5.2-9.1
					c-0.2-3-2.1-6.8-6.5-8.2l-69.8-22.5C249.5,135.4,248.5,135.2,247.6,135.2z"/>
			</g>
			<g>
				<path class="st4" d="M288.6,164.4l45.9-22.9c9.6-4.8,8.6-18.9-1.7-22.2L263,96.9c-10.2-3.3-19.3,7.5-14.3,17l23.9,45.3
					C275.7,165,282.8,167.3,288.6,164.4z"/>
				<path class="st1" d="M283.3,168.3c-5.3,0-10.4-2.8-13-7.8l-23.9-45.3c-2.8-5.4-2.2-11.6,1.7-16.2c3.9-4.6,9.9-6.4,15.7-4.5
					l69.8,22.5c5.8,1.9,9.6,6.8,10.1,12.8c0.5,6-2.6,11.5-8.1,14.2l-45.9,22.9C287.7,167.8,285.5,168.3,283.3,168.3z M259.3,98.9
					c-3.1,0-5.6,1.6-7.1,3.4c-2,2.3-3.3,6.3-1.1,10.4l23.9,45.3c2.4,4.5,8,6.3,12.5,4l45.9-22.9c4.2-2.1,5.4-6.1,5.2-9.1
					c-0.2-3-2.1-6.8-6.5-8.2l-69.8-22.5C261.2,99.1,260.2,98.9,259.3,98.9z"/>
			</g>
		</g>
	</g>
	<g>
		<g>
			<polygon class="st0" points="301.4,362.8 138.2,362.8 113.2,205.1 326.3,205.1 			"/>
			<path class="st1" d="M301.4,365.4H138.2c-1.3,0-2.4-0.9-2.6-2.2l-25-157.7c-0.1-0.8,0.1-1.5,0.6-2.1c0.5-0.6,1.2-0.9,2-0.9h213.1
				c0.8,0,1.5,0.3,2,0.9c0.5,0.6,0.7,1.3,0.6,2.1l-25,157.7C303.7,364.5,302.6,365.4,301.4,365.4z M140.5,360.2h158.7l24.1-152.5
				h-207L140.5,360.2z"/>
		</g>
		<g>
			<rect x="152.7" y="346" class="st1" width="7.4" height="18"/>
			<path class="st1" d="M162.7,366.5h-12.6v-23.2h12.6V366.5z M155.3,361.3h2.2v-12.7h-2.2V361.3z"/>
		</g>
		<g>
			<rect x="178.1" y="346" class="st1" width="7.4" height="18"/>
			<path class="st1" d="M188.1,366.5h-12.6v-23.2h12.6V366.5z M180.7,361.3h2.2v-12.7h-2.2V361.3z"/>
		</g>
		<g>
			<rect x="203.6" y="346" class="st1" width="7.4" height="18"/>
			<path class="st1" d="M213.6,366.5h-12.6v-23.2h12.6V366.5z M206.2,361.3h2.2v-12.7h-2.2V361.3z"/>
		</g>
		<g>
			<rect x="229" y="346" class="st1" width="7.4" height="18"/>
			<path class="st1" d="M239,366.5h-12.6v-23.2H239V366.5z M231.6,361.3h2.2v-12.7h-2.2V361.3z"/>
		</g>
		<g>
			<rect x="254.4" y="346" class="st1" width="7.4" height="18"/>
			<path class="st1" d="M264.5,366.5h-12.6v-23.2h12.6V366.5z M257.1,361.3h2.2v-12.7h-2.2V361.3z"/>
		</g>
		<g>
			<rect x="279.9" y="346" class="st1" width="7.4" height="18"/>
			<path class="st1" d="M289.9,366.5h-12.6v-23.2h12.6V366.5z M282.5,361.3h2.2v-12.7h-2.2V361.3z"/>
		</g>
		<g>
			<line class="st1" x1="135.6" y1="346" x2="304" y2="346"/>
			<rect x="135.6" y="343.4" class="st1" width="168.5" height="5.2"/>
		</g>
		<g>
			<polygon class="st4" points="309.9,309 319.6,247.8 120,247.8 129.7,309 			"/>
			<path class="st1" d="M309.9,311.6H129.7c-1.3,0-2.4-0.9-2.6-2.2l-9.7-61.2c-0.1-0.8,0.1-1.5,0.6-2.1c0.5-0.6,1.2-0.9,2-0.9h199.5
				c0.8,0,1.5,0.3,2,0.9c0.5,0.6,0.7,1.3,0.6,2.1l-9.7,61.2C312.3,310.7,311.2,311.6,309.9,311.6z M131.9,306.4h175.7l8.9-56H123.1
				L131.9,306.4z"/>
		</g>
		<g>
			<path class="st1" d="M138.5,290.4c0-1.3,0.7-2.5,1.9-3.3V287c-0.7-0.5-1.2-1.4-1.2-2.7c0-1.2,0.7-2.3,1.4-3v-0.1
				c-0.9-0.8-1.7-2.3-1.7-4.2c0-3.8,2.5-5.8,5.2-5.8c0.7,0,1.4,0.2,1.9,0.4h4.7v3.1h-2.2c0.3,0.5,0.6,1.4,0.6,2.4
				c0,3.6-2.2,5.4-5,5.4c-0.5,0-1.1-0.1-1.7-0.4c-0.4,0.4-0.6,0.7-0.6,1.4c0,0.9,0.5,1.3,2,1.3h2.2c3.1,0,4.8,1.2,4.8,4
				c0,3.2-2.7,5.7-7,5.7C140.8,294.6,138.5,293.3,138.5,290.4z M147.7,289.6c0-1.1-0.8-1.4-2.1-1.4H144c-0.8,0-1.3-0.1-1.8-0.2
				c-0.6,0.6-0.9,1.2-0.9,1.9c0,1.3,1.2,2.1,3.1,2.1C146.3,291.9,147.7,290.8,147.7,289.6z M146.1,277c0-1.9-0.9-2.9-2-2.9
				s-2,1.1-2,2.9s0.9,2.9,2,2.9S146.1,278.9,146.1,277z"/>
			<path class="st1" d="M153,281.6v-10h3.4v9.4c0,2.5,0.6,3.3,1.8,3.3c1.1,0,1.8-0.6,2.6-2v-10.8h3.4v16h-2.8l-0.3-2.3h-0.1
				c-1.1,1.6-2.4,2.7-4.1,2.7C154.2,288,153,285.6,153,281.6z"/>
			<path class="st1" d="M167.2,283.3c0-3.4,2.2-5.2,7.4-5.9c0-1.6-0.6-2.8-2.2-2.8c-1.2,0-2.4,0.7-3.6,1.5l-1.2-2.8
				c1.5-1.2,3.4-2.1,5.4-2.1c3.3,0,5,2.4,5,7v9.3h-2.8l-0.3-1.7h-0.1c-1.1,1.2-2.4,2.1-3.9,2.1C168.7,288,167.2,286,167.2,283.3z
				 M169.4,265.7h7.5v2.7h-7.5V265.7z M174.6,283.2v-3.2c-3.1,0.5-4.2,1.6-4.2,3c0,1.3,0.7,1.8,1.7,1.8
				C173.1,284.7,173.8,284.2,174.6,283.2z"/>
			<path class="st1" d="M181.4,271.6h2.8l0.2,2.1h0.1c1.1-1.4,2.4-2.5,4.2-2.5c2.8,0,4,2.4,4,6.4v10h-3.4v-9.4
				c0-2.5-0.6-3.3-1.8-3.3c-1.1,0-1.7,0.6-2.7,1.8v11h-3.4V271.6z"/>
			<path class="st1" d="M200.7,279.7c0-5.2,2.6-8.4,5.4-8.4c1.5,0,2.4,0.7,3.3,1.7l-0.1-2.5v-5.6h3.4v22.8H210l-0.3-1.7h-0.1
				c-0.9,1.1-2.2,2.1-3.6,2.1C202.8,288,200.7,284.9,200.7,279.7z M209.3,282.9v-7c-0.8-0.9-1.6-1.2-2.4-1.2c-1.5,0-2.7,1.7-2.7,4.9
				c0,3.3,1,5,2.7,5C207.8,284.6,208.6,284.1,209.3,282.9z"/>
			<path class="st1" d="M215.4,279.7c0-5.3,3-8.4,6.2-8.4c3.2,0,6.2,3.1,6.2,8.4c0,5.3-3,8.4-6.2,8.4
				C218.4,288,215.4,284.9,215.4,279.7z M218,265.7h7.5v2.7H218V265.7z M224.4,279.7c0-3-1-5-2.7-5c-1.8,0-2.7,2-2.7,5
				c0,3,1,4.9,2.7,4.9C223.4,284.6,224.4,282.7,224.4,279.7z"/>
			<path class="st1" d="M230.8,271.6h2.8l0.2,2.1h0.1c1.1-1.4,2.4-2.5,4.2-2.5c2.8,0,4,2.4,4,6.4v10h-3.4v-9.4
				c0-2.5-0.6-3.3-1.8-3.3c-1.1,0-1.7,0.6-2.7,1.8v11h-3.4V271.6z"/>
			<path class="st1" d="M244.7,290.4c0-1.3,0.7-2.5,1.9-3.3V287c-0.7-0.5-1.2-1.4-1.2-2.7c0-1.2,0.7-2.3,1.4-3v-0.1
				c-0.9-0.8-1.7-2.3-1.7-4.2c0-3.8,2.5-5.8,5.2-5.8c0.7,0,1.4,0.2,1.9,0.4h4.7v3.1h-2.2c0.3,0.5,0.6,1.4,0.6,2.4
				c0,3.6-2.2,5.4-5,5.4c-0.5,0-1.1-0.1-1.7-0.4c-0.4,0.4-0.6,0.7-0.6,1.4c0,0.9,0.5,1.3,2,1.3h2.2c3.1,0,4.8,1.2,4.8,4
				c0,3.2-2.7,5.7-7,5.7C247.1,294.6,244.7,293.3,244.7,290.4z M253.9,289.6c0-1.1-0.8-1.4-2.1-1.4h-1.6c-0.8,0-1.3-0.1-1.8-0.2
				c-0.6,0.6-0.9,1.2-0.9,1.9c0,1.3,1.2,2.1,3.1,2.1C252.6,291.9,253.9,290.8,253.9,289.6z M252.3,277c0-1.9-0.9-2.9-2-2.9
				c-1.2,0-2,1.1-2,2.9s0.9,2.9,2,2.9C251.5,280,252.3,278.9,252.3,277z"/>
			<path class="st1" d="M263.7,285.4l5.8-10.4h-5.1v-3.3h9.4v2.3l-5.8,10.4h6v3.3h-10.2V285.4z"/>
			<path class="st1" d="M276.4,264.9h3.4v5.7l-0.1,3c1-1.2,2.3-2.3,4.1-2.3c2.8,0,4,2.4,4,6.4v10h-3.4v-9.4c0-2.5-0.6-3.3-1.8-3.3
				c-1.1,0-1.7,0.6-2.7,1.8v11h-3.4V264.9z"/>
			<path class="st1" d="M291,281.6v-10h3.4v9.4c0,2.5,0.6,3.3,1.8,3.3c1.1,0,1.8-0.6,2.6-2v-10.8h3.4v16h-2.8l-0.3-2.3h-0.1
				c-1.1,1.6-2.4,2.7-4.1,2.7C292.2,288,291,285.6,291,281.6z M292.1,264.7l1.3-1.5l3.2,3.2h0.1l3.2-3.2l1.3,1.5l-2.9,4.3H295
				L292.1,264.7z"/>
		</g>
		<g>
			<rect x="113.2" y="194.9" class="st4" width="215" height="10.1"/>
			<path class="st1" d="M328.3,207.7h-215c-1.4,0-2.6-1.2-2.6-2.6v-10.1c0-1.4,1.2-2.6,2.6-2.6h215c1.4,0,2.6,1.2,2.6,2.6v10.1
				C330.9,206.5,329.7,207.7,328.3,207.7z M115.9,202.5h209.8v-4.9H115.9V202.5z"/>
		</g>
		<g>
			<g>
				<g>
					<path class="st4" d="M188.8,240.7c-11.4-2.7-23.3-2.7-34.8,0c-8.5,2-16.6-4.2-16.6-12.9v-0.1c0-5.7,3.6-10.7,9-12.6
						c16.2-5.8,33.9-5.8,50.1,0c5.3,1.9,9,6.9,9,12.6v0.1C205.4,236.5,197.3,242.7,188.8,240.7z"/>
					<path class="st1" d="M192,243.7c-1.3,0-2.6-0.1-3.9-0.5l0,0c-11-2.6-22.6-2.6-33.5,0c-4.9,1.2-10,0.1-13.9-3
						c-3.8-3-6-7.5-6-12.4c0-6.9,4.3-12.9,10.7-15.2c16.7-5.9,35.1-5.9,51.9,0c6.4,2.3,10.7,8.3,10.7,15c0,5-2.2,9.5-6,12.5
						C199.2,242.5,195.7,243.7,192,243.7z M189.4,238.2c3.3,0.8,6.8,0,9.4-2c2.6-2,4-5,4-8.3c0-4.7-2.9-8.7-7.2-10.3
						c-15.6-5.5-32.8-5.5-48.4,0c-4.3,1.5-7.2,5.6-7.2,10.1c0,3.4,1.5,6.4,4,8.4c2.6,2.1,6.1,2.8,9.4,2
						C165.2,235.4,177.6,235.4,189.4,238.2L189.4,238.2z"/>
				</g>
				<path class="st1" d="M160.3,211.6c-0.8,1.6-1.3,3.5-1.3,5.4c0,6.9,5.6,12.4,12.4,12.4s12.4-5.6,12.4-12.4c0-2-0.5-3.8-1.3-5.4
					C175.2,210.5,167.7,210.5,160.3,211.6z"/>
				<g>
					<circle class="st4" cx="164" cy="218" r="3.5"/>
					<path class="st1" d="M164,222.3c-2.4,0-4.4-2-4.4-4.4c0-2.4,2-4.4,4.4-4.4s4.4,2,4.4,4.4C168.4,220.4,166.4,222.3,164,222.3z
						 M164,215.3c-1.5,0-2.6,1.2-2.6,2.6c0,1.5,1.2,2.6,2.6,2.6s2.6-1.2,2.6-2.6C166.6,216.5,165.4,215.3,164,215.3z"/>
				</g>
			</g>
			<g>
				<g>
					<path class="st4" d="M285.5,240.7c-11.4-2.7-23.3-2.7-34.8,0c-8.5,2-16.6-4.2-16.6-12.9v-0.1c0-5.7,3.6-10.7,9-12.6
						c16.2-5.8,33.9-5.8,50.1,0c5.3,1.9,9,6.9,9,12.6v0.1C302.2,236.5,294,242.7,285.5,240.7z"/>
					<path class="st1" d="M247.5,243.7c-3.6,0-7.1-1.2-10-3.5c-3.8-3-6-7.5-6-12.4c0-6.9,4.3-12.9,10.7-15.2
						c16.7-5.9,35.1-5.9,51.9,0c6.4,2.3,10.7,8.3,10.7,15c0,5-2.2,9.5-6,12.5c-3.9,3.1-9,4.2-13.9,3l0,0c-11-2.6-22.6-2.6-33.5,0
						C250.1,243.5,248.8,243.7,247.5,243.7z M268.2,213.4c-8.2,0-16.4,1.4-24.2,4.2c-4.3,1.5-7.2,5.6-7.2,10.1c0,3.4,1.5,6.4,4,8.4
						c2.6,2.1,6.1,2.8,9.4,2c11.8-2.8,24.2-2.8,36,0c3.3,0.8,6.8,0,9.4-2c2.6-2,4-5,4-8.3c0-4.7-2.9-8.7-7.2-10.3
						C284.6,214.8,276.4,213.4,268.2,213.4z"/>
				</g>
				<path class="st1" d="M257,211.6c-0.8,1.6-1.3,3.5-1.3,5.4c0,6.9,5.6,12.4,12.4,12.4c6.9,0,12.4-5.6,12.4-12.4
					c0-2-0.5-3.8-1.3-5.4C271.9,210.5,264.4,210.5,257,211.6z"/>
				<g>
					<circle class="st4" cx="260.7" cy="218" r="3.5"/>
					<path class="st1" d="M260.7,222.3c-2.4,0-4.4-2-4.4-4.4c0-2.4,2-4.4,4.4-4.4c2.4,0,4.4,2,4.4,4.4
						C265.1,220.4,263.1,222.3,260.7,222.3z M260.7,215.3c-1.5,0-2.6,1.2-2.6,2.6c0,1.5,1.2,2.6,2.6,2.6c1.5,0,2.6-1.2,2.6-2.6
						C263.4,216.5,262.2,215.3,260.7,215.3z"/>
				</g>
			</g>
		</g>
		<g>
			<g>
				<path class="st3" d="M231.6,309c0,0,13.6,20,6.4,33.1c-7.2,13-17.3,11.1-24.1,9.8c-6.8-1.3-16.1-9.1-10.8-18
					c5.3-8.9,10.5-7.6,10.7-16s-5.6-8.9-5.6-8.9L231.6,309z"/>
				<path class="st1" d="M221.4,355.4c-3.1,0-5.9-0.5-8.1-1c-4.6-0.9-10.8-4.5-13.4-10.2c-1.7-3.8-1.4-7.9,0.8-11.7
					c2.4-4.1,4.8-6.2,6.8-7.9c2.4-2.1,3.5-3.1,3.6-6.8c0.2-5.9-3.1-6.2-3.2-6.2c-1.4-0.1-2.4-1.3-2.4-2.7c0.1-1.4,1.2-2.5,2.6-2.5
					l23.4,0l0,0c0.9,0,1.7,0.4,2.2,1.1c0.6,0.9,14.4,21.5,6.5,35.8C234.8,353.2,227.6,355.4,221.4,355.4z M215.2,311.6
					c0.7,1.6,1.2,3.7,1.1,6.3c-0.2,6-2.7,8.3-5.4,10.6c-1.7,1.5-3.7,3.3-5.7,6.6c-1.4,2.3-1.6,4.6-0.5,6.9c1.7,3.8,6.2,6.6,9.6,7.2
					c6.7,1.3,15,2.9,21.3-8.5c5.4-9.9-2.9-25-5.5-29.2L215.2,311.6z"/>
			</g>
			<path class="st1" d="M216.6,345.6c-0.8,0-1.7-0.4-2.2-1.1c-0.8-1.2-0.5-2.8,0.7-3.6c10.8-7.3,7.1-19.8,6.9-20.3
				c-0.4-1.4,0.3-2.8,1.7-3.3c1.4-0.4,2.8,0.3,3.3,1.7c1.8,5.7,2.3,18.6-9,26.2C217.6,345.4,217.1,345.6,216.6,345.6z"/>
		</g>
		<path class="st1" d="M81,421.5c-1.1,0-2.3-0.3-3.2-1c-2.6-1.8-3.2-5.3-1.4-7.9c32.1-45.8,90-64,92.5-64.8c3-0.9,6.2,0.8,7.1,3.7
			c0.9,3-0.8,6.2-3.7,7.1l0,0c-0.6,0.2-56.7,17.9-86.5,60.5C84.6,420.7,82.8,421.5,81,421.5z"/>
		<g>
			<ellipse class="st3" cx="80.1" cy="409.4" rx="10.8" ry="15.9"/>
			<path class="st1" d="M80.1,427.8c-7.5,0-13.4-8.1-13.4-18.5s5.9-18.5,13.4-18.5c7.5,0,13.4,8.1,13.4,18.5S87.6,427.8,80.1,427.8z
				 M80.1,396.1c-4.4,0-8.2,6.1-8.2,13.2c0,7.2,3.7,13.2,8.2,13.2s8.2-6.1,8.2-13.2C88.2,402.2,84.5,396.1,80.1,396.1z"/>
		</g>
		<path class="st1" d="M359,421.5c1.1,0,2.3-0.3,3.2-1c2.6-1.8,3.2-5.3,1.4-7.9c-32.1-45.8-90-64-92.5-64.8c-3-0.9-6.2,0.8-7.1,3.7
			c-0.9,3,0.8,6.2,3.7,7.1l0,0c0.6,0.2,56.7,17.9,86.5,60.5C355.4,420.7,357.2,421.5,359,421.5z"/>
		<g>
			<ellipse class="st3" cx="359.9" cy="409.4" rx="10.8" ry="15.9"/>
			<path class="st1" d="M359.9,427.8c-7.5,0-13.4-8.1-13.4-18.5s5.9-18.5,13.4-18.5c7.5,0,13.4,8.1,13.4,18.5
				S367.4,427.8,359.9,427.8z M359.9,396.1c-4.4,0-8.2,6.1-8.2,13.2c0,7.2,3.7,13.2,8.2,13.2c4.4,0,8.2-6.1,8.2-13.2
				C368.1,402.2,364.4,396.1,359.9,396.1z"/>
		</g>
		<path class="st1" d="M315.4,280.1c-0.6,0-1.1-0.1-1.7-0.3c-3-0.9-4.7-4.1-3.7-7.1l0,0c0.2-0.7,21.6-71.1,0.2-125.1
			c-1.2-2.9,0.3-6.2,3.2-7.4c2.9-1.2,6.2,0.3,7.4,3.2c22.9,57.8,1,129.6,0.1,132.7C320,278.5,317.8,280.1,315.4,280.1z"/>
		<path class="st1" d="M124.2,280.1c-1.4,0-2.8-0.5-3.9-1.6c-1.9-1.8-45.5-45.2-35.1-127.2c0.4-3.1,3.2-5.3,6.3-4.9
			c3.1,0.4,5.3,3.2,4.9,6.3c-9.7,76.4,31.3,117.2,31.7,117.6c2.2,2.2,2.3,5.8,0.1,8C127.2,279.5,125.7,280.1,124.2,280.1z"/>
	</g>
</g>
</svg>
